<?xml version="1.0" encoding="UTF-8"?>
<!DOCTYPE svg PUBLIC "-//W3C//DTD SVG 1.1//EN" "http://www.w3.org/Graphics/SVG/1.1/DTD/svg11.dtd">
<!-- Creator: CorelDRAW 2018 (64-Bit) -->
<svg xmlns="http://www.w3.org/2000/svg" xml:space="preserve" width="184.986mm" height="184.984mm" version="1.1" style="shape-rendering:geometricPrecision; text-rendering:geometricPrecision; image-rendering:optimizeQuality; fill-rule:evenodd; clip-rule:evenodd"
viewBox="0 0 17589.01 17588.86"
 xmlns:xlink="http://www.w3.org/1999/xlink">
 <defs>
  <style type="text/css">
   <![CDATA[
    .fil1 {fill:#FEFEFE;fill-rule:nonzero}
    .fil0 {fill:#2B2A29;fill-rule:nonzero}
    .fil2 {fill:#E31E24;fill-rule:nonzero}
   ]]>
  </style>
 </defs>
 <g id="Слой_x0020_1">
  <metadata id="CorelCorpID_0Corel-Layer"/>
  <g id="_2536276586464">
   <g>
    <g>
     <path class="fil0" d="M17589.01 8794.38c0,4857.11 -3937.5,8794.48 -8794.61,8794.48 -4857.14,0 -8794.4,-3937.36 -8794.4,-8794.48 0,-4857.01 3937.26,-8794.38 8794.4,-8794.38 4857.11,0 8794.61,3937.37 8794.61,8794.38z"/>
     <g>
      <g>
       <path class="fil1" d="M3311.59 11720.76c-221.71,-316.52 -657.99,-393.38 -974.52,-171.81 -316.52,221.6 -393.5,657.89 -171.81,974.39 221.47,316.53 657.76,393.51 974.28,171.81 316.51,-221.56 393.51,-657.86 172.04,-974.39zm-291.33 565.78l0 0 -96.96 309.3 -253.54 -202.11 -324.13 3.34 113.83 -303.47 -103.14 -307.36 323.88 14.61 260.2 -193.21 86.25 312.47 264.01 187.87 -270.42 178.56z"/>
       <path class="fil1" d="M15251.93 11548.95c-316.53,-221.57 -752.79,-144.72 -974.53,171.81 -221.7,316.53 -144.72,752.83 171.82,974.39 316.53,221.71 752.82,144.73 974.52,-171.81 221.71,-316.5 144.73,-752.79 -171.81,-974.39zm-332.91 844.78l0 0 -253.3 202.11 -96.97 -309.3 -270.67 -178.56 264.26 -187.87 86.02 -312.47 260.44 193.21 323.87 -14.61 -103.35 307.36 114.06 303.47 -324.37 -3.34z"/>
      </g>
      <g>
       <path class="fil1" d="M1812.4 8725.84c335.28,-45.15 486.18,102.04 514.94,315.3l59.65 444.49 122.13 -16.52 48.24 358.24 -122.13 16.41 59.88 444.49c28.52,213.24 -77.95,395.04 -413.23,440.19 -338.63,45.5 -487.15,-108.46 -514.94,-315.32l-59.65 -444.48 -114.06 15.33 -48.24 -358.13 114.06 -15.33 -59.88 -444.49c-27.81,-206.86 74.6,-394.56 413.23,-440.17zm292.99 797.68l0 0 -43.73 -325.67c-10.69,-78.17 -54.65,-133.52 -191.28,-115.11 -135.21,18.18 -164.45,83.4 -154,161.58l43.74 325.68 345.27 -46.49zm-253.07 730.25l0 0c10.46,78.16 55.84,133.3 191.05,115.11 136.88,-18.41 164.44,-83.4 154,-161.56l-43.74 -325.67 -345.28 46.45 43.97 325.67z"/>
       <polygon class="fil1" points="1287.96,8215.4 1489.46,6966.08 1770.09,7011.35 1626.09,7903.75 1786.74,7929.66 1924.31,7077.88 2203.29,7122.78 2065.94,7974.68 2224.93,8000.34 2368.92,7107.93 2649.55,7153.2 2448.05,8402.55 "/>
       <path class="fil1" d="M1702.84 6247.6l559.15 -1234.48 792.96 359.19 37.31 -82.34 388.99 176.21 -149 329.23 -44.91 -20.42c-47.99,-21.64 -75.55,-12.48 -99.09,39.91l-301.55 665.84c-23.77,52.39 -12.35,79.13 34.69,102.3l44.91 20.31 -149 329.24 -388.99 -176.2 26.37 -58.34c24.96,-55.36 -90.29,-150.9 -751.85,-450.43zm686.75 -779.9l0 0 -260.68 576.02c291.57,132.24 470.51,251.05 486.43,299.65l290.62 -641.95 -516.37 -233.71z"/>
       <polygon class="fil1" points="2589.91,4508.64 3394.76,3533.77 3613.63,3714.59 3038.79,4410.97 3164.26,4514.46 3712.94,3849.69 3930.61,4029.45 3381.94,4694.23 3505.97,4796.64 4080.79,4100.28 4299.89,4281.11 3495.05,5255.98 "/>
       <path class="fil1" d="M4529.9 2600.36c287.07,-210.77 426.55,-262.11 664.41,62.14 235.97,321.74 147.09,441.87 -140.2,652.66l-420.83 308.67 169.89 231.69 -291.33 213.62 -694.13 -946.47 712.17 -522.31zm344.57 469.9l0 0c62.26,-45.61 94.57,-104.07 28.74,-194.13 -66.05,-89.94 -131.63,-76.52 -193.9,-30.89l-420.83 308.69 165.14 225.02 420.85 -308.69z"/>
       <path class="fil1" d="M6423.82 1652.35l960.02 893.59 -394.94 148.29 -173.24 -143.65 -670.34 251.77 -35.88 222.19 -394.94 148.39 132.83 -1304.1 576.49 -216.48zm-222.67 364.29l0 0 -36.59 453.97 416.56 -156.48 -326.26 -317.71 -53.71 20.21z"/>
       <path class="fil1" d="M8661.8 2141.15l-59.18 -868.88 360.71 -24.49 58.92 868.9 114.78 -7.84 33.51 491.76 -360.71 24.49 -7.61 -114.78c-3.56,-52.4 -24.7,-72.36 -82.2,-68.43l-1135.87 77.11 -79.84 -1171.99 360.72 -24.6 59.16 868.88 737.61 -50.13z"/>
       <path class="fil1" d="M10013.42 1363.4l-182.26 788.91c-5.02,22.34 -53,83.77 -57.75,104.56 -0.72,3.21 -0.23,8.43 2.85,9.14 19.26,4.41 43.5,-42.17 56.08,-52.73l797.23 -707.68 576 132.95 -264.22 1144.19 -351.94 -81.27 182.03 -788.92c5.21,-22.34 55.13,-85.07 59.66,-104.2 0.94,-4.86 0.23,-8.43 -3.12,-9.16 -17.55,-4.03 -41.1,39.46 -56.07,52.75l-798.65 707.31 -576.04 -132.96 264.03 -1144.17 352.17 81.28z"/>
       <path class="fil1" d="M12447.92 3575.95l-316.3 -174.78 158.97 -287.41 -499.98 -276.48c-79.1,-43.73 -136.13,1.65 -160.63,46.22l-101.68 183.91 -316.3 -174.77 127.14 -229.9c73.2,-132.24 122.14,-142.69 257.6,-129.74 -79.86,-96.59 -78.65,-193.54 18.31,-368.92 143.04,-258.54 311.74,-217.79 481.43,-124.04l919.36 508.52 -567.9 1027.39zm-402.33 -1216.78l0 0c-66.04,-36.61 -110.49,-27.45 -154.22,51.56 -43.02,77.58 -27.09,120.23 38.97,156.71l507.34 280.53 115.24 -208.4 -507.34 -280.4z"/>
       <polygon class="fil1" points="14072.34,4050.49 14190.2,4198.06 14768.36,4261.51 15077.98,4648.96 14274.55,4540.36 14205.66,5438.13 13879.86,5030.12 13952.82,4387.55 13834.95,4240.12 13477.09,4525.99 13251.81,4243.8 14168.82,3511.08 14394.31,3793.27 "/>
       <path class="fil1" d="M15981.2 6542.49l-852.6 -89.45c-331.95,-35.41 -470.75,-12.96 -613.54,-343.15l-148.52 -343.6 278.96 -120.59 155.66 360.24c20.9,48.24 29.45,51.69 63.18,55.02l462.67 -1032.02 198.9 459.8 -284.43 575.55c-9.99,22.34 -81.28,60.24 -75.57,73.78 5.24,12.11 76.98,-33.16 122.38,-27.7l531.32 58.23 161.58 373.9z"/>
       <path class="fil1" d="M16123.55 7153.92l177.51 1343.18 -862.85 114.06 11.89 89.6 -423.45 55.97 -47.3 -358.12 48.75 -6.53c52.24,-6.88 70.78,-29.22 63.18,-86.14l-95.75 -724.53c-7.6,-57.03 -31.38,-73.78 -83.66,-68.43l-48.7 6.42 -47.53 -358.24 423.44 -55.97 8.33 63.57c7.85,60.24 156.37,80.32 876.14,-14.84zm-171.08 1024.77l0 0 -82.94 -626.75c-317.48,41.94 -532.05,35.52 -571.02,2.61l92.44 698.51 561.52 -74.37z"/>
       <path class="fil1" d="M15007.89 9717.8c113.57,-752.11 154.68,-760.88 711.94,-676.76 555.56,83.76 595.5,104.79 482.16,856.86 -113.11,748.88 -158.28,761.96 -713.85,678.2 -553.92,-83.63 -593.13,-109.41 -480.25,-858.3zm300.61 45.36l0 0c-61.8,409.33 -60.37,411.23 233.59,455.55 295.6,44.55 297.51,43.24 359.05,-364.52 61.79,-409.33 60.34,-411.23 -235.26,-455.78 -293.96,-44.45 -295.86,-43.01 -357.38,364.75z"/>
      </g>
      <g>
       <path class="fil1" d="M4767.07 13669.18c263.06,240.5 341,367.14 69.38,664.18 -269.47,294.65 -404.68,230.87 -667.72,-9.63l-385.69 -352.4 -193.9 212.1 -266.61 -243.81 792.49 -866.75 652.05 596.3zm-393.28 430.37l0 0c56.79,52.05 120.48,72.45 196.05,-9.99 75.32,-82.45 49.18,-143.99 -7.84,-196.15l-385.44 -352.41 -188.44 206.02 385.67 352.53z"/>
       <path class="fil1" d="M5554.81 15597.79c-682.47,-335.3 -678.2,-377.14 -429.87,-882.81 247.62,-504.13 279.68,-535.84 962.16,-200.66 679.39,333.76 678.44,380.8 430.82,884.93 -246.88,502.59 -283.49,532.3 -963.11,198.54zm134.03 -272.8l0 0c371.39,182.48 373.54,181.8 504.72,-85.07 131.63,-268.28 130.93,-270.41 -239.06,-452.22 -371.42,-182.35 -373.54,-181.67 -505.43,86.61 -130.94,266.75 -130.22,269 239.77,450.68z"/>
       <path class="fil1" d="M8372.6 15634.87l-356.2 -60.83c21.85,-127.98 -1.43,-166.97 -326.75,-222.55 -349.78,-59.78 -352.87,-50.25 -401.81,236.31 -49.43,288.13 -48.73,294.91 300.82,354.57 320.56,54.77 358.59,36.35 382.11,-101.25l356.2 60.82c-67.73,396.63 -101.46,457.59 -789.4,339.96 -672.01,-114.78 -698.87,-171.09 -605.71,-716.59 92.67,-542.36 137.1,-587.99 808.88,-473.21 681.52,116.42 699.11,189.37 631.86,582.78z"/>
       <path class="fil1" d="M10199.94 15509.05l-359.28 36.32c-13.07,-129.03 -45.86,-160.38 -374.29,-127.22 -352.86,35.77 -353.58,45.73 -324.36,334.81 29.48,290.85 31.84,297.27 384.73,261.5 323.41,-32.66 355.25,-60.7 341.22,-199.48l359.31 -36.37c40.62,400.2 24.21,467.9 -670.11,538.14 -677.97,68.55 -719.08,21.48 -774.67,-528.97 -55.36,-547.37 -24.71,-603.22 653.24,-671.78 687.94,-69.64 724.03,-3.93 764.19,393.05z"/>
       <path class="fil1" d="M10807.58 14858.3l314.83 745.91c9.04,21.13 6.19,98.95 14.51,118.67 1.18,2.99 4.75,6.91 7.6,5.61 18.31,-7.61 10.45,-59.66 14.52,-75.57l230.97 -1040.56 544.88 -229.92 456.47 1081.8 -332.91 140.56 -314.63 -745.91c-9,-21.17 -5.47,-101.23 -13.06,-119.31 -1.9,-4.61 -4.75,-7.01 -7.6,-5.7 -16.64,7.01 -10.22,55.95 -14.48,75.57l-232.64 1041.18 -544.66 229.89 -456.73 -1081.8 332.94 -140.43z"/>
       <path class="fil1" d="M12571.49 13930.45l533.48 609.54c15.19,17.33 37.04,92.18 51.06,108.23 2.17,2.49 6.68,5.12 9.27,2.99 14.74,-13.07 -9,-60.02 -10.22,-76.43l-107.63 -1060.99 445.07 -389.58 773.99 883.99 -272.11 238.07 -533.45 -609.51c-15.23,-17.32 -36.85,-94.44 -49.92,-109.31 -3.08,-3.67 -6.66,-5.11 -9.01,-2.95 -13.56,11.99 7.83,56.41 9.96,76.39l106.46 1062.09 -445.07 389.71 -773.96 -884.11 272.09 -238.12z"/>
      </g>
     </g>
    </g>
    <path class="fil1" d="M8794.63 172.51c-4761.83,0 -8622.12,3860.16 -8622.12,8622 0,4761.83 3860.29,8621.99 8622.12,8621.99 4761.59,0 8621.85,-3860.16 8621.85,-8621.99 0,-4761.84 -3860.25,-8622 -8621.85,-8622zm0 16899.05l0 0c-4571.27,0 -8277.31,-3705.81 -8277.31,-8277.18 0,-4571.25 3706.05,-8277.07 8277.31,-8277.07 4571.25,0 8276.82,3705.83 8276.82,8277.07 0,4571.37 -3705.57,8277.18 -8276.82,8277.18z"/>
    <g>
     <path class="fil1" d="M12427.48 9441.06c-426.56,-183.43 -842.42,-459.32 -1214.76,-743.26 -202.94,-154.94 -983.3,-812.93 -1350.9,-865.81 350.96,-287.07 631.13,-502 687.21,-559.02 26.59,-26.85 69.61,-24.84 89.83,-51.79 62.73,-83.78 169.9,-199.49 229.29,-288.72 1.45,41.33 257.6,-209.35 362.39,-452.8 263.53,-611.76 348.15,-681.89 384.51,-850.95 15.92,-74.87 75.31,-549.88 -68.93,-730.83 -70.82,-89.11 -117.4,-218.75 -180.13,-306.42 -76.52,-106.93 -144.23,-290.51 -263.3,-234.18 -63.19,30.06 -41.8,92.43 -119.53,93.73 -1603.49,27.34 -1402,91.37 -1642.25,132.72 -250.46,43.15 -1159.36,194.51 -1353.27,261.74 -1324.53,459.7 -1461.65,791.67 -2091.13,957.07 -35.64,-62.75 -113.81,-165.75 -94.34,-451.74 -28.99,-349.55 152.56,-465.03 28.76,-443.3 -23.54,4.16 -349.8,41.94 -620.23,940.17 -94.09,311.89 -55.83,592.05 139.72,1111.74 65.83,174.91 149,280.65 304.65,395.54 140.68,103.84 332.92,188.8 511.86,160.99 248.31,-38.37 455.53,-306.29 432.72,-561.28 -12.12,-136.74 -266.86,-601.54 -370.72,-692.92 121.68,-71.65 622.6,-264.83 1017.06,-343.25 168.01,-33.62 279.92,-44.57 494.75,-55.6 192.96,-127.24 381.87,-146.14 554.63,-195.94 183.44,-52.87 1074.75,-247.36 1908.85,-276.46 2.13,228.48 -138.54,521.47 -218.17,730.83 -74.36,195.33 -416.3,624.48 -386.6,703.37 12.58,4.39 -77.46,39.1 -63.93,43.85 -119.99,228.84 -301.07,430.46 -531.55,793.19 -91.03,-14.37 -133.32,15.8 -220.04,28.76 -47.76,7.12 -37.31,101.82 3.57,208.98 -42.3,88.4 -167.53,219.94 -226.46,294.56 -249.27,314.73 -560.33,429.26 -406.59,511.37 51.09,27.2 672.25,-220.4 859.97,-340.53 361.44,381.4 1422.9,1500.74 1791.22,1656.03 187.73,79.01 223.14,-75.11 357.87,-100.76 33.74,-6.55 124.54,-2.03 185.83,-13.92 67.24,-13.17 160.63,-48.81 222.42,-73.41 86.24,-34.23 271.13,-119.53 504.03,-69.73 75.54,16.28 -30.43,-120.48 28.73,-144.85 30.65,-12.71 63.93,-43.47 67.74,-67.61 4.98,-31.35 -33.51,-48.94 -21.61,-58.93 47.27,-39.8 211.47,64.76 358.55,66.07 65.12,0.59 171.09,-8.09 -81.72,-116.69z"/>
     <path class="fil1" d="M7231.99 7042.58c-70.1,112.29 -246.66,112.41 -246.66,152.45 0,40.16 -118.1,57.99 -188.2,170.26 -70.1,112.28 -15.68,-237.97 -103.13,-99.81 -66.54,104.81 -70.34,205.55 -191.53,422.64 -240.96,431.3 -765.17,1195.73 -1065.05,1417.78 -183.23,136.04 -634.72,461.58 -898.95,560.21 -25.43,9.5 27.79,68.2 84.12,68.2 76.75,0 28.27,134.27 252.59,142.33 589.09,21.03 726.66,-17.32 1178.4,-406.95 551.55,-475.6 1108.3,-1739.64 1178.4,-2006.15 70.1,-266.5 70.1,-533.12 0,-420.96z"/>
     <path class="fil1" d="M8794.4 3276.42c-3047.36,0 -5517.98,2470.51 -5517.98,5518.08 0,3047.56 2470.62,5518.06 5517.98,5518.06 3047.55,0 5518.18,-2470.5 5518.18,-5518.06 0,-3047.58 -2470.63,-5518.08 -5518.18,-5518.08zm0 10863.64l0 0c-1357.11,0 -2595.14,-506.52 -3537.82,-1339.63 552.71,-151.51 920.33,-88.06 1325.49,-255.21 261.63,-107.9 1483.52,-250.95 1762.26,-247.51 1162.46,14.02 1264.62,125.59 1376.79,95.55 51.1,-13.56 122.37,-81.52 319.83,-0.13 323.19,133.55 852.14,4.75 1747.75,830.04 -854.27,578.75 -1884.83,916.9 -2994.31,916.9zm3745.7 -1532.96l0 0c-70.56,-90.51 -159.2,-184.39 -207.19,-230.48 -233.59,-224.58 -851.42,-577.67 -973.58,-648.39 -33.28,-19.1 -323.18,-262.55 -431.31,-298.45 -67.48,-22.44 2.84,181.44 -54.19,159.82 -60.33,-22.6 -67.47,49.76 -93.39,46.68 -155.39,3.8 -557.95,-36.82 -641.57,-55.36 -244.53,-54.31 -497.12,-39.56 -755.41,-33.64 -969.04,22.12 -1848.99,65.71 -1866.34,68.93 289.92,-248.07 805.34,-599.19 794.87,-810.09 -15.92,-324.81 -105.73,-703.62 -172.03,-948.61 92.44,-14.48 181.3,-24.83 261.88,-28.14 83.64,-3.58 553.39,-148.53 641.08,-187.5 41.84,-18.64 119.53,-79.73 146.86,-118.35 31.61,-44.42 28.99,-89.83 43.73,-149.7 25.42,-103.48 19.26,-166.11 -69.38,-228.58 -35.64,-25.09 -80.09,-87.11 -112.16,-101.62 -60.1,-27.32 -161.36,3.35 -226.93,-1.05 -75.54,-5.24 -161.57,-13.07 -213.37,55.13 -232.64,305.95 -746.4,422.73 -1107.6,442.36 -94.34,5.11 -188.66,4.84 -283.01,4.61 -24.01,-0.12 -193.67,17.11 -215.07,19.95 -128.55,16.65 -57.03,42.91 -118.81,64.99 -208.4,74.27 -171.57,13.92 -242.61,45.76 -182.51,81.73 -259.73,20.18 -295.15,45.63 -56.07,40.16 14.98,327.09 165.4,397.77 198.89,93.52 428.22,-3.8 620.69,-37.04 51.09,-8.81 124.51,-26.15 211.25,-47.53 81.28,405.85 104.32,725.7 60.36,787.61 -48.48,68.69 -54.9,330.55 -755.18,873.27 -75.57,58.6 -97.44,92.43 -197.71,66.29 -91.26,-23.74 -236.68,8.22 -337.2,-27.09 -41.35,-14.6 -169.9,1.08 -209.59,-8.19 -130.45,-30.89 -269.23,-7.73 -377.82,-23.65 -106.46,-15.79 -144.24,68.33 -106.22,173.12 21.15,57.98 -10.46,66.66 -48.95,136.04 -50.38,91.14 -173.24,48.03 -249.76,100.89 -29.22,20.19 -308.67,86.84 -418.7,124.38 -783.92,-930.07 -1257.05,-2130.68 -1257.05,-3442.37 0,-2312.37 1468.07,-4281.47 3523.09,-5026.55 -114.78,114.77 -163.74,279.57 -191.31,377.12 -34.21,121.18 220.53,-123.22 288.24,-167.65 86.27,-56.69 181.56,-84.37 297.52,35.05 156.36,161.23 333.16,262.11 476.44,453.64 81.27,108.7 156.36,208.15 300.13,223.48 157.31,16.62 291.1,-97.78 449.82,-97.56 102.91,-122.61 151.85,-174.3 154,-354.55 3.1,-256.63 -164.2,-498.66 -367.85,-648.6 -46.33,-34.11 -90.77,-73.07 -136.4,-111.8 181.3,-18.54 365.47,-28.28 551.78,-28.28 2952.51,0 5345.65,2393.27 5345.65,5345.69 0,1493.23 -612.82,2842.73 -1599.95,3812.6z"/>
    </g>
    <g>
     <path class="fil2" d="M10305.67 12583.35c-116.9,-20.9 -217.64,-39.08 -311.03,-77.7 -48.71,-19.98 -90.08,-30.17 -123.59,-30.17 -29.45,0 -47.76,7.97 -71.06,17.92 -17.55,7.5 -33.25,13.66 -47.49,17.36 -23.29,6.28 -46.85,9.27 -72.49,9.27 -38.03,0 -75.8,-6.43 -133.33,-16.05 -145.4,-24.47 -447.92,-75.44 -1203.8,-84.59l-8.78 -0.12c-286.34,0 -1468.55,140.66 -1705.71,238.47 -233.83,96.47 -455.05,121.16 -689.12,147.31 -133.08,14.97 -269.48,30.16 -418.7,58.83 926.27,746.14 2079.71,1154.52 3273.81,1154.52 996.33,0 1959.45,-279.48 2794.96,-809.85 -580.52,-498.79 -984.03,-571.25 -1283.69,-625.2z"/>
     <path class="fil2" d="M9343.31 9445c-7.14,42.52 -16.18,95.29 -54.18,148.98 -42.56,59.78 -138.79,133.33 -196.77,158.97 -85.3,38.03 -575.03,193.2 -685.54,197.95 -35.39,1.45 -73.42,4.39 -114.54,8.81 62.74,250.46 127.61,565.65 141.15,840.48 9.75,197 -208.39,399.7 -550.35,675.58 365.72,-16.15 938.63,-37.44 1497.54,-50.16l89.1 -2.26c76.97,-2 153.26,-4.16 229.06,-4.02 188.91,0 332.68,13.2 466.23,42.87 63.91,14.16 396.36,48.98 567.94,52.42 10.68,-10.81 24.47,-22.21 41.57,-31.48 -0.23,-45.4 6.42,-94.84 43.73,-134.05 26.37,-27.55 62.01,-42.64 100.27,-42.64 15.93,0 32.11,2.62 47.77,7.86 91.02,30.17 237.38,140.66 392.09,260.91 30.66,23.98 54.19,42.42 61.79,47.63l15.46 8.91c494.96,285.64 825.28,506.76 981.63,657.04 34.2,32.92 82.22,83.07 130.7,137.84 949.33,-979.63 1470.43,-2264.27 1470.43,-3632.14 0,-2880.53 -2343.48,-5224.02 -5223.99,-5224.02 -80.09,0 -160.64,1.89 -241.21,5.58 168.49,158.38 318.63,394.58 315.33,662.87 -1.9,154.56 -36.84,239.64 -93.37,319.48 148.5,-26.37 302.72,-53.23 455.72,-79.38l89.36 -15.19c42.79,-7.37 67.25,-15.1 98.37,-24.83 136.66,-42.9 278.04,-87.22 1539.35,-109.2 15.93,-24.71 42.79,-58.81 92.71,-82.58 31.12,-14.72 63.19,-22.09 95.29,-22.09 138.53,0 213.83,125 274.44,225.38 14.97,24.72 29.49,49.07 44.45,69.99 33.74,47.17 61.79,101.12 88.87,153.27 27.8,53.7 56.54,109.19 87.69,148.27 197.69,247.97 93.62,826.47 92.44,832.18 -21.65,100.76 -56.35,168.72 -119.07,292.17 -57.03,112.16 -143.51,281.69 -272.54,581.36 -64.17,148.86 -255.94,422.86 -396.62,506.26 -35.64,48.6 -78.65,100.28 -120.72,150.42 -32.56,39.21 -64.17,76.99 -88.64,109.67 -31.84,42.42 -73.9,58.1 -98.86,67.48 -2.6,0.95 -5.21,1.9 -7.83,2.98 -39.21,37.78 -125.95,107.4 -293.69,241.54 -67.02,53.47 -142.6,113.95 -224.81,180.13 296.81,134.62 681.51,423.45 1062.67,726.08 46.82,37.18 85.07,67.73 112.65,88.75 439.14,334.81 828.13,573.02 1189.08,728.18 114.55,49.21 257.11,110.5 231.23,235.72 -15.69,75.93 -80.09,114.42 -192.02,114.42l-6.16 0 -0.48 0c-86.25,-0.72 -169.69,-27.19 -237.86,-49.43 -13.79,22.84 -31.87,43.15 -52.28,60.02 9.73,38.85 17.1,93.26 -20.43,142.69 -25.92,34 -66.3,53.46 -110.75,53.46 -11.64,0 -23.98,-1.41 -36.37,-4.03 -38.95,-8.41 -78.87,-12.58 -118.81,-12.58 -126.4,0 -228.11,41.21 -295.37,68.53l-19.49 7.74c-67.94,27.09 -167.29,64.75 -244.27,79.96 -44.91,8.68 -96.47,10.22 -138.07,11.53 -19.95,0.59 -37.54,0.71 -47.99,2.39 -21.17,4.03 -40.89,18.05 -71.31,40.62 -47.99,35.77 -113.57,84.61 -212.66,84.61 -45.86,0 -92.9,-10.49 -144,-31.98 -340.05,-143.28 -1154.88,-971.67 -1766.78,-1615.38 -233.55,122.27 -698.37,311.53 -824.77,311.53 -25.91,0 -49.21,-5.48 -69.63,-16.4 -78.42,-41.82 -100.06,-99.32 -104.56,-140.08 -11.16,-105.14 72.01,-175.38 187.26,-272.79 84.82,-71.77 190.57,-161.23 285.63,-281.12 17.1,-21.85 39.69,-48.24 64.4,-76.98 40.16,-47.17 91.95,-107.54 124.51,-155.53 -48.01,-156.84 -11.4,-219.21 1.43,-241.32 24.01,-40.64 63.92,-67.84 110.03,-74.6 22.56,-3.46 42.27,-8.57 62.95,-14.02 31.84,-8.21 67.24,-17.48 110.97,-19.61 90.31,-138.66 172.27,-252.97 245.71,-355.27 95.06,-132.36 171.09,-238.45 231.46,-349.18 11.13,-39.33 41.57,-63.69 68.66,-79.85 23.51,-79.13 89.36,-183.21 196.28,-348.83 75.8,-117.51 161.82,-250.59 190.35,-325.56 15.2,-39.92 32.79,-83.06 50.84,-127.96 54.41,-133.9 118.58,-292.41 145.91,-431.53 -821.95,45.38 -1620.36,230.85 -1739.89,265.43 -44.21,12.7 -89.35,23.51 -135.21,34.44 -132.85,31.86 -258.55,61.79 -386.16,146.14l-27.79 18.18 -33.03 1.67c-221.94,11.51 -324.36,22.93 -477.16,53.47 -297.99,59.28 -654.19,185.47 -850.47,268.28 130.7,191.41 289.67,504.97 301.55,637.68 5.22,57.73 -1.43,115.01 -13.3,171.34 6.88,-1.08 12.6,-4.05 19.95,-4.05 51.11,0 83.89,21.98 105.29,51.92 13.77,-9.16 26.37,-16.75 37.31,-23.41 2.37,-1.3 4.5,-2.48 6.4,-3.79 28.29,-58.11 96.49,-81.04 137.12,-94.82 40.64,-13.65 96.24,-32.56 115.24,-62.86 43.02,-68.91 95.29,-83.4 131.65,-83.4 41.35,0 80.08,19.36 106.22,53.11 91.96,119.28 -5.7,503.41 -17.11,546.65 -68.44,260.57 -625.92,1558 -1216.66,2067.35 -395.88,341.72 -580.99,441.04 -1044.13,441.04 -65.6,0 -137.82,-1.78 -218.14,-4.62 -172.29,-6.19 -245.01,-75.93 -290.62,-146.75 -81.52,-17.24 -154.95,-80.92 -167.77,-152.19 -11.41,-64.04 23.05,-124.64 83.65,-147.08 173.71,-64.89 490.45,-263.07 868.99,-543.96 275.42,-203.97 786.32,-940.87 1031.32,-1379.4 23.75,-42.53 41.59,-78.78 57.03,-112.64 -79.14,60.47 -169.44,104.79 -267.82,120 -28.74,4.51 -58.93,6.77 -89.1,6.77 -222.89,0 -417.52,-119.17 -513.52,-190.11 -176.08,-130.09 -273.28,-256.52 -346.23,-450.66 -208.17,-552.6 -244.04,-852.85 -142.58,-1189.68 259.74,-861.53 586.95,-1003.63 715.73,-1024.89 18.07,-3.21 32.81,-4.4 44.45,-4.4 67.73,0 103.13,36.95 118.34,58.92 42.53,62.03 18.77,124.28 -0.48,174.31 -23.3,60.72 -62.03,162.19 -48.71,324.24l0.7 9.16 -0.48 9.16c-10.45,153.27 9.5,241.19 33.75,299.4 214.1,-67.25 369.04,-157.79 574.34,-277.55 296.09,-172.99 664.66,-388.04 1398.92,-644.2 -77.47,-53.95 -133.54,-128.45 -185.11,-197.73 -78.18,-104.54 -169.19,-180.59 -265.68,-261.14 -66.04,-55.26 -134.48,-112.41 -200.78,-180.61 -20.67,-21.25 -50.38,-46.7 -75.57,-46.7 -16.39,0 -38.49,9.38 -67.73,28.63 -12.11,7.85 -45.63,35.66 -72.47,57.98 -139.5,115.86 -203.4,163.01 -273.03,163.01 -42.78,0 -81.74,-19.11 -106.94,-52.39 -19.24,-25.53 -38.25,-69.74 -19.48,-135.79 7.6,-26.87 17.59,-62.15 31.13,-102.08 -1882.25,826.96 -3124.33,2708.26 -3124.33,4784.66 0,1202.61 417.5,2372.11 1177.21,3302.3 41.1,-11.89 87.44,-24.6 133.08,-37.08 66.27,-18.05 155.87,-42.51 182.96,-52.87 53.23,-33.75 109.55,-41.47 155.17,-47.63 18.07,-2.52 45.38,-6.19 48.96,-6.68 12.6,-22.57 24.24,-39.9 34.7,-54.51 -26.62,-87.23 -18.06,-170.63 24.48,-231.46 39.69,-56.54 102.89,-87.69 177.74,-87.69 13.31,0 27.56,0.95 42.3,3.2 28.74,4.16 62.73,4.98 105.02,4.98l26.39 0 28.52 -0.1c68.2,0 147.57,1.66 224.32,19.84 5.22,0.69 12.12,0.69 19.72,0.69 0.95,0 1.9,0 2.85,0 12.84,0 27.09,-0.23 41.58,-0.59 17.35,-0.46 34.93,-0.82 51.81,-0.82 50.85,0 82.92,3.93 110.01,13.43 28.04,9.86 72.97,11.17 108.83,11.17l38.74 -0.36 40.41 -0.36c43.01,0 93.39,1.67 139.72,13.66 17.1,4.52 25.66,4.97 26.61,5.7 5.93,-2.61 22.8,-16.28 36.34,-27.22 9.04,-7.24 18.54,-14.97 29.24,-23.16 553.91,-429.38 650.63,-667.98 691.98,-769.78 10.45,-25.43 19.49,-47.76 32.56,-68.56 11.4,-45.5 10.93,-233.23 -50.85,-578.49 -35.18,7.96 -67.5,14.84 -94.82,19.45 -40.64,7.14 -84.6,17.59 -131.18,28.67 -97.41,23.38 -207.93,49.76 -319.37,49.76 -90.06,0 -169.44,-16.74 -242.63,-51.07 -163.71,-76.88 -241.89,-293.37 -252.84,-411.82 -10.21,-113.34 31.37,-168.6 68.45,-195.1 27.09,-19.49 59.87,-29.35 97.18,-29.35 11.88,0 25.43,1.08 40.87,2.62 11.89,1.18 25.43,2.75 41.84,2.75 41.1,0 85.77,-11.07 136.15,-33.74 31.62,-14.15 59.66,-20.8 88.4,-20.8 10.93,0 21.38,1.06 32.78,2.62 2.62,0.32 5.47,0.95 9.27,0.95 8.57,0 33.99,-2.52 98.14,-24.02 38.97,-57.38 105.75,-71.18 166.81,-79.14 16.87,-2.13 194.85,-20.9 231.21,-20.9l63.69 0.1c63.69,0 138.77,-0.58 212.43,-4.48 345.28,-18.77 818.64,-133.33 1017.29,-394.46 80.54,-106.1 201.5,-106.59 241.91,-106.59 0.23,0 0.23,0 0.48,0 23.76,0 81.96,3.66 81.96,3.66 17.1,0 36.12,-2.22 56.07,-4.38 27.58,-2.95 58.7,-6.43 90.05,-6.43 45.63,0 83.88,7.38 116.94,22.34 39.2,17.82 69.61,49.66 99.09,80.45 10.45,11.17 26.37,27.81 33.02,32.56 153.99,108.46 145.9,241.43 117.4,357.03 -3.8,15.1 -5.96,29.11 -8.32,42.19z"/>
    </g>
   </g>
  </g>
 </g>
</svg>
